<?xml version="1.0" encoding="UTF-8"?>
<svg xmlns="http://www.w3.org/2000/svg" xmlns:xlink="http://www.w3.org/1999/xlink" width="80pt" height="80pt" viewBox="0 0 80 80" version="1.1">
<g id="surface1">
<path style=" stroke:none;fill-rule:nonzero;fill:rgb(50.588235%,50.588235%,50.588235%);fill-opacity:1;" d="M 80 40 C 80 62.089844 62.089844 80 40 80 C 17.910156 80 0 62.089844 0 40 C 0 17.910156 17.910156 0 40 0 C 62.089844 0 80 17.910156 80 40 Z M 80 40 "/>
<path style=" stroke:none;fill-rule:nonzero;fill:rgb(100%,100%,100%);fill-opacity:1;" d="M 53.5 37.898438 C 53.300781 37.800781 53 37.699219 52.800781 37.601562 C 52.398438 29.601562 48 25 40.601562 24.898438 C 40.601562 24.898438 40.5 24.898438 40.5 24.898438 C 36.101562 24.898438 32.398438 26.800781 30.199219 30.199219 L 34.300781 33 C 36 30.398438 38.601562 29.898438 40.601562 29.898438 C 40.601562 29.898438 40.601562 29.898438 40.699219 29.898438 C 43.101562 29.898438 45 30.601562 46.101562 32 C 47 33 47.5 34.398438 47.800781 36.101562 C 45.601562 35.699219 43.300781 35.601562 40.800781 35.800781 C 33.800781 36.199219 29.300781 40.300781 29.601562 46 C 29.800781 48.898438 31.199219 51.398438 33.601562 53 C 35.699219 54.398438 38.300781 55 41.101562 54.898438 C 44.800781 54.699219 47.601562 53.300781 49.699219 50.699219 C 51.199219 48.800781 52.199219 46.199219 52.601562 43.101562 C 54.300781 44.199219 55.601562 45.5 56.398438 47.199219 C 57.601562 50 57.699219 54.699219 53.898438 58.5 C 50.601562 61.800781 46.601562 63.300781 40.5 63.300781 C 33.800781 63.300781 28.699219 61.101562 25.398438 56.898438 C 22.300781 53 20.699219 47.300781 20.601562 40 C 20.699219 32.699219 22.300781 27.101562 25.398438 23.101562 C 28.699219 18.898438 33.800781 16.699219 40.5 16.699219 C 47.300781 16.800781 52.398438 18.898438 55.898438 23.101562 C 57.601562 25.199219 58.800781 27.800781 59.699219 30.800781 L 64.5 29.5 C 63.5 25.800781 61.898438 22.5 59.699219 19.898438 C 55.300781 14.5 48.898438 11.699219 40.601562 11.699219 C 32.300781 11.800781 26 14.5 21.699219 20 C 17.898438 24.800781 15.898438 31.601562 15.898438 40 C 16 48.398438 17.898438 55.101562 21.699219 60 C 26 65.398438 32.300781 68.199219 40.601562 68.300781 C 47.898438 68.199219 53.101562 66.300781 57.398438 62.101562 C 63 56.5 62.800781 49.5 61 45.199219 C 59.5 42.101562 57 39.601562 53.5 37.898438 Z M 40.800781 49.898438 C 37.699219 50.101562 34.5 48.699219 34.398438 45.699219 C 34.300781 43.5 36 41.101562 41 40.800781 C 41.601562 40.800781 42.101562 40.800781 42.699219 40.800781 C 44.5 40.800781 46.300781 41 47.800781 41.300781 C 47.300781 48.5 43.800781 49.699219 40.800781 49.898438 Z M 40.800781 49.898438 "/>
</g>
</svg>
