<?xml version="1.0" encoding="UTF-8"?>
<svg xmlns="http://www.w3.org/2000/svg" xmlns:xlink="http://www.w3.org/1999/xlink" width="80px" height="80px" viewBox="0 0 80 80" version="1.1">
<g id="surface1">
<path style=" stroke:none;fill-rule:nonzero;fill:rgb(50.588235%,50.588235%,50.588235%);fill-opacity:1;" d="M 24.699219 69.699219 L 30.800781 76.699219 L 25.5 76.699219 L 17.5 67.5 L 25 67.5 L 25 64 L 16.800781 64 L 16.800781 76.699219 L 12.300781 76.699219 L 12.300781 61.800781 L 29.398438 61.800781 L 29.398438 69.699219 Z M 24.699219 69.699219 "/>
<path style=" stroke:none;fill-rule:nonzero;fill:rgb(50.588235%,50.588235%,50.588235%);fill-opacity:1;" d="M 31.398438 72.601562 L 31.398438 61.800781 L 48.300781 61.800781 L 48.300781 76.699219 L 35 76.699219 Z M 35.800781 71.601562 L 38.300781 74.5 L 43.800781 74.5 L 43.800781 64 L 35.800781 64 Z M 35.800781 71.601562 "/>
<path style=" stroke:none;fill-rule:nonzero;fill:rgb(50.588235%,50.588235%,50.588235%);fill-opacity:1;" d="M 62.898438 68.601562 L 67.398438 68.601562 L 67.398438 76.699219 L 50.398438 76.699219 L 50.398438 61.800781 L 68 61.800781 L 66.101562 64 L 54.898438 64 L 54.898438 74.5 L 62.898438 74.5 Z M 62.898438 68.601562 "/>
<path style=" stroke:none;fill-rule:nonzero;fill:rgb(50.588235%,50.588235%,50.588235%);fill-opacity:1;" d="M 13.488281 4.941406 L 34.089844 32.542969 L 13.289062 54.941406 L 17.988281 54.941406 L 36.191406 35.339844 L 50.789062 54.941406 L 66.691406 54.941406 L 44.890625 25.839844 L 64.191406 4.941406 L 59.589844 4.941406 L 42.789062 23.042969 L 29.289062 4.941406 Z M 20.289062 8.441406 L 27.589844 8.441406 L 59.789062 51.542969 L 52.488281 51.542969 Z M 20.289062 8.441406 "/>
</g>
</svg>
