<?xml version="1.0" encoding="UTF-8"?>
<svg xmlns="http://www.w3.org/2000/svg" xmlns:xlink="http://www.w3.org/1999/xlink" width="80px" height="80px" viewBox="0 0 80 80" version="1.1">
<g id="surface1">
<path style=" stroke:none;fill-rule:nonzero;fill:rgb(50.588235%,50.588235%,50.588235%);fill-opacity:1;" d="M 80 40 C 80 62.089844 62.089844 80 40 80 C 17.910156 80 0 62.089844 0 40 C 0 17.910156 17.910156 0 40 0 C 62.089844 0 80 17.910156 80 40 Z M 80 40 "/>
<path style=" stroke:none;fill-rule:nonzero;fill:rgb(100%,100%,100%);fill-opacity:1;" d="M 15.089844 16.640625 L 34.390625 42.441406 L 14.988281 63.441406 L 19.390625 63.441406 L 36.390625 45.042969 L 50.089844 63.441406 L 64.988281 63.441406 L 44.589844 36.140625 L 62.691406 16.640625 L 58.289062 16.640625 L 42.691406 33.542969 L 29.988281 16.640625 Z M 21.589844 19.839844 L 28.390625 19.839844 L 58.589844 60.140625 L 51.789062 60.140625 Z M 21.589844 19.839844 "/>
</g>
</svg>
